<?xml version="1.0" encoding="UTF-8"?> <!-- Generator: Adobe Illustrator 24.3.2, SVG Export Plug-In . SVG Version: 6.00 Build 0) --> <svg xmlns="http://www.w3.org/2000/svg" xmlns:xlink="http://www.w3.org/1999/xlink" version="1.1" id="GRAFICA" x="0px" y="0px" width="188.65px" height="50.39px" viewBox="0 0 188.65 50.39" xml:space="preserve"> <g> <path fill="#FFFFFF" d="M34.16,22.33L34.16,22.33l0-2.07l0-4.41c0,0-2.39-0.04-5.13-0.04L7.67,11.22l14.81,11.1L7.67,33.49 l21.36-4.59c2.79,0,5.13-0.04,5.13-0.04l0-4.41L34.16,22.33z M63.14,12.23c-6.06,0-8.21,2.72-8.28,6.64l4.64,0 c0.23-1.69,1.15-2.8,3.41-2.8c1.96,0,3.18,0.73,3.18,1.96c0,1.3-0.69,1.8-3.18,2.15c-5.02,0.69-8.67,1.3-8.67,6.75 c0,3.07,1.99,5.18,6.29,5.18c2.53,0,4.53-0.88,5.72-2.19c0.04,0.58,0.15,1.23,0.31,1.69l4.64,0l0-11.93 C71.2,14.91,69.13,12.23,63.14,12.23z M66.18,24.43c-0.04,2.23-1.96,4.11-4.53,4.11c-1.57,0-2.42-0.69-2.42-2.11 c0-1.61,0.92-2.42,3.76-2.95c1.84-0.35,2.72-0.61,3.22-1.11L66.18,24.43z M48.22,19.17l0,4.91c0,2.34-0.92,3.68-2.92,3.68 c-2.03,0-2.88-1.38-2.88-3.76l0-7.75l10.43,0l0-3.53l-10.43,0l0-5.1l-4.91,0l0,16.88c0,4.07,2.19,7.6,7.71,7.6 c5.33,0,7.63-3.57,7.63-7.56l0-5.37L48.22,19.17z M90.1,12.23c-6.06,0-8.21,2.72-8.29,6.64l4.64,0c0.23-1.69,1.15-2.8,3.41-2.8 c1.96,0,3.18,0.73,3.18,1.96c0,1.3-0.69,1.8-3.18,2.15c-5.02,0.69-8.67,1.3-8.67,6.75c0,3.07,1.99,5.18,6.29,5.18 c2.53,0,4.53-0.88,5.72-2.19c0.04,0.58,0.15,1.23,0.31,1.69l4.64,0l0-11.93C98.15,14.92,96.08,12.23,90.1,12.23z M93.13,24.43 c-0.04,2.23-1.96,4.11-4.53,4.11c-1.57,0-2.42-0.69-2.42-2.11c0-1.61,0.92-2.42,3.76-2.95c1.84-0.35,2.72-0.61,3.22-1.11 L93.13,24.43z M144.61,12.23c-6.06,0-8.21,2.72-8.29,6.64l4.64,0c0.23-1.69,1.15-2.8,3.41-2.8c1.96,0,3.18,0.73,3.18,1.96 c0,1.3-0.69,1.8-3.18,2.15c-5.02,0.69-8.67,1.3-8.67,6.75c0,3.07,1.99,5.18,6.29,5.18c2.53,0,4.53-0.88,5.72-2.19 c0.04,0.58,0.15,1.23,0.31,1.69l4.64,0l0-11.93C152.67,14.92,150.6,12.23,144.61,12.23z M147.65,24.43 c-0.04,2.23-1.96,4.11-4.53,4.11c-1.57,0-2.42-0.69-2.42-2.11c0-1.61,0.92-2.42,3.76-2.95c1.84-0.35,2.72-0.61,3.22-1.11 L147.65,24.43z M73.98,7.67l0,23.93l4.99,0l0-23.93L73.98,7.67z M180.97,21.88c0,0,0.36-5.55-25.98-8.53 c1.25,2.69,1.27,4.31,1.27,6.86l0.03,11.15c10.36-0.55,17.09-3.2,19.46-4.52C181.38,23.66,180.97,21.88,180.97,21.88z M171.39,23.47c-1.1,0-1.99-0.89-1.99-1.99c0-1.1,0.89-1.99,1.99-1.99c1.1,0,1.99,0.89,1.99,1.99S172.49,23.47,171.39,23.47z M129.69,19.17l0,4.91c0,2.34-0.92,3.68-2.92,3.68c-2.03,0-2.88-1.38-2.88-3.76l0-7.75l2.49,0l7.94,0l0-3.53l-10.43,0l0-5.1 l-4.91,0l0,5.1l-13.24,0l0-5.1l-4.91,0l0,16.88c0,4.07,2.19,7.6,7.71,7.6c5.33,0,7.63-3.57,7.63-7.56l0-5.37l-4.64,0l0,4.91 c0,2.34-0.92,3.68-2.92,3.68c-2.03,0-2.88-1.38-2.88-3.76l0-7.75l13.24,0l0,8.25c0,4.07,2.19,7.6,7.71,7.6 c5.33,0,7.63-3.57,7.63-7.56l0-5.37L129.69,19.17z"></path> <g> <path fill="#FFFFFF" d="M37.58,42.72l1.6-5.77h1.59l1.57,5.77h-1.27l-0.32-1.28H39.1l-0.33,1.28H37.58z M39.91,38.06h-0.02 l-0.55,2.49h1.15L39.91,38.06z"></path> <path fill="#FFFFFF" d="M44.59,42.72h-1.21v-5.77h2.23c0.82,0,1.35,0.53,1.35,1.51c0,0.74-0.29,1.29-1.07,1.42v0.02 c0.26,0.03,1.05,0.1,1.05,1.13c0,0.37,0.02,1.46,0.14,1.7h-1.18c-0.16-0.35-0.13-0.74-0.13-1.12c0-0.69,0.06-1.27-0.86-1.27h-0.31 V42.72z M44.59,39.44h0.54c0.48,0,0.62-0.48,0.62-0.85c0-0.55-0.23-0.76-0.62-0.76h-0.54V39.44z"></path> <path fill="#FFFFFF" d="M51.79,36.94v0.96h-1.34v4.81h-1.21V37.9h-1.34v-0.96H51.79z"></path> <path fill="#FFFFFF" d="M52.85,42.72v-5.77h1.21v5.77H52.85z"></path> <path fill="#FFFFFF" d="M58.21,38.72c0.01-0.54-0.08-1.01-0.72-1.01c-0.75,0-0.75,1.01-0.75,2.13c0,1.81,0.18,2.13,0.86,2.13 c0.2,0,0.42-0.05,0.6-0.11v-1.28h-0.66v-0.89h1.86v2.93c-0.33,0.06-1.15,0.19-1.63,0.19c-2.03,0-2.26-0.84-2.26-3.03 c0-1.46,0.07-2.94,2.05-2.94c1.18,0,1.92,0.66,1.85,1.87H58.21z"></path> <path fill="#FFFFFF" d="M60.95,42.72v-5.77h1.21v5.77H60.95z"></path> <path fill="#FFFFFF" d="M63.23,42.72l1.6-5.77h1.59l1.57,5.77h-1.27l-0.32-1.28h-1.65l-0.33,1.28H63.23z M65.56,38.06h-0.02 l-0.55,2.49h1.15L65.56,38.06z"></path> <path fill="#FFFFFF" d="M69.06,42.72v-5.77h1.63l1.54,4h0.02v-4h1.13v5.77h-1.59l-1.58-4.22h-0.02v4.22H69.06z"></path> <path fill="#FFFFFF" d="M74.88,42.72v-5.77h1.21v5.77H74.88z"></path> <path fill="#FFFFFF" d="M79.9,36.94h2.02c1.58,0,1.88,1.05,1.88,2.85c0,0.89,0.14,2.92-1.93,2.92H79.9V36.94z M81.11,41.83h0.58 c0.74,0,0.88-0.55,0.88-2c0-1.06,0-2-0.84-2h-0.62V41.83z"></path> <path fill="#FFFFFF" d="M85.26,42.72v-5.77h3.15v0.89h-1.94v1.42h1.79v0.89h-1.79v1.69h2.01v0.89H85.26z"></path> <path fill="#FFFFFF" d="M89.76,42.72v-5.77h1.21v4.81h1.81v0.96H89.76z"></path> <path fill="#FFFFFF" d="M96.05,42.72v-5.77h1.94l0.9,3.93h0.02l0.96-3.93h1.88v5.77h-1.18v-4.45h-0.02l-1.11,4.45H98.3l-1.06-4.45 h-0.02v4.45H96.05z"></path> <path fill="#FFFFFF" d="M102.79,42.72l1.6-5.77h1.59l1.57,5.77h-1.27l-0.32-1.28h-1.65l-0.33,1.28H102.79z M105.12,38.06h-0.02 l-0.55,2.49h1.15L105.12,38.06z"></path> <path fill="#FFFFFF" d="M109.8,42.72h-1.21v-5.77h2.23c0.82,0,1.35,0.53,1.35,1.51c0,0.74-0.29,1.29-1.07,1.42v0.02 c0.26,0.03,1.05,0.1,1.05,1.13c0,0.37,0.02,1.46,0.14,1.7h-1.18c-0.16-0.35-0.13-0.74-0.13-1.12c0-0.69,0.06-1.27-0.86-1.27h-0.31 V42.72z M109.8,39.44h0.54c0.48,0,0.62-0.48,0.62-0.85c0-0.55-0.23-0.76-0.62-0.76h-0.54V39.44z"></path> <path fill="#FFFFFF" d="M113.56,42.72v-5.77h3.15v0.89h-1.94v1.42h1.79v0.89h-1.79v1.69h2.01v0.89H113.56z"></path> <path fill="#FFFFFF" d="M120.35,36.94h2.02c1.58,0,1.88,1.05,1.88,2.85c0,0.89,0.14,2.92-1.93,2.92h-1.97V36.94z M121.56,41.83 h0.58c0.74,0,0.88-0.55,0.88-2c0-1.06,0-2-0.84-2h-0.62V41.83z"></path> <path fill="#FFFFFF" d="M125.27,42.72l1.6-5.77h1.59l1.57,5.77h-1.27l-0.32-1.28h-1.65l-0.33,1.28H125.27z M127.6,38.06h-0.02 l-0.55,2.49h1.15L127.6,38.06z"></path> <path fill="#FFFFFF" d="M131.11,42.72v-5.77h1.21v4.81h1.81v0.96H131.11z"></path> <path fill="#FFFFFF" d="M137.31,38c0.4-0.22,0.79-0.49,1.08-0.86h1.07v5.58h-1.21v-4.29c-0.29,0.24-0.62,0.45-0.94,0.62V38z"></path> <path fill="#FFFFFF" d="M142.31,41.4c0,0.14,0.02,0.29,0.08,0.39c0.06,0.11,0.17,0.18,0.33,0.18c0.56,0,0.5-0.46,0.5-1.78 c-0.26,0.26-0.57,0.37-0.93,0.37c-0.86,0-1.18-0.77-1.18-1.51c0-1.1,0.33-1.98,1.59-1.98c1.66,0,1.65,1.32,1.65,2.89 c0,1.38-0.02,2.84-1.65,2.84c-0.97,0-1.53-0.33-1.5-1.38H142.31z M142.72,39.79c0.48,0,0.5-0.65,0.5-0.99 c0-0.35-0.02-0.97-0.5-0.97c-0.49,0-0.49,0.65-0.49,0.99S142.24,39.79,142.72,39.79z"></path> <path fill="#FFFFFF" d="M146.41,39.39l0.02,0.02c0.18-0.26,0.48-0.38,0.81-0.38c0.92,0,1.19,0.63,1.19,1.84 c0,1.49-0.56,1.92-1.7,1.92c-0.93,0-1.51-0.38-1.48-1.38h1.13c0,0.15,0.02,0.29,0.08,0.4c0.06,0.1,0.17,0.17,0.34,0.17 c0.45,0,0.5-0.35,0.5-1.1c0-0.36,0.03-1.12-0.48-1.12c-0.33,0-0.42,0.37-0.42,0.62h-1.09v-3.24h2.92V38h-1.81V39.39z"></path> <path fill="#FFFFFF" d="M152.45,39.91c0,1.75-0.11,2.88-1.61,2.88c-1.5,0-1.62-1.13-1.62-2.88c0-2.13,0.24-2.85,1.62-2.85 C152.21,37.06,152.45,37.77,152.45,39.91z M150.34,39.93c0,1.69,0.04,2.05,0.49,2.05c0.45,0,0.49-0.36,0.49-2.05 c0-1.72-0.01-2.05-0.49-2.05C150.35,37.88,150.34,38.21,150.34,39.93z"></path> </g> </g> </svg> 